<svg xmlns="http://www.w3.org/2000/svg" id="Layer_1" data-name="Layer 1" viewBox="0 0 512 512">
  <defs>
    <linearGradient id="grad1" x1="0%" y1="0%" x2="100%" y2="100%">
      <stop offset="0%" style="stop-color:#4F8CF7" />
      <stop offset="100%" style="stop-color:#A855F7" />
    </linearGradient>
  </defs>
  <path fill="url(#grad1)" stroke="#000000" stroke-width="1.5" d="M256,361.7A105.695,105.695,0,1,0,150.306,256,105.814,105.814,0,0,0,256,361.7Zm-53.921-34.064a89.513,89.513,0,0,1,10.335-6.723,98.211,98.211,0,0,0,9.628,18.1A89.736,89.736,0,0,1,202.079,327.631ZM216.975,264h78.05a167.157,167.157,0,0,1-5.064,35.212,105.421,105.421,0,0,0-67.922,0A167.157,167.157,0,0,1,216.975,264ZM256,344.583c-10.3,0-21.251-11.242-28.955-30.175a89.45,89.45,0,0,1,57.91,0C277.251,333.341,266.3,344.583,256,344.583Zm33.958-5.571a98.211,98.211,0,0,0,9.628-18.1,89.513,89.513,0,0,1,10.335,6.723A89.736,89.736,0,0,1,289.958,339.012Zm32.01-22.307a105.481,105.481,0,0,0-17.147-11.144A181.8,181.8,0,0,0,311.049,264h34.284A89.381,89.381,0,0,1,321.968,316.705ZM345.333,248H311.049a179.215,179.215,0,0,0-7.142-44.718,105.429,105.429,0,0,0,16.068-10.08A89.429,89.429,0,0,1,345.333,248Zm-37.9-65.439a89.516,89.516,0,0,1-9.107,5.6,95.429,95.429,0,0,0-8.37-15.177A89.631,89.631,0,0,1,307.435,182.561ZM256,167.418c9.714,0,20,10,27.605,27.011a89.586,89.586,0,0,1-55.209,0C236,177.414,246.287,167.418,256,167.418Zm0,47.368a105.69,105.69,0,0,0,33.045-5.314A164.11,164.11,0,0,1,295.025,248h-78.05a164.134,164.134,0,0,1,5.981-38.531A105.71,105.71,0,0,0,256,214.786Zm-33.958-41.8a95.344,95.344,0,0,0-8.368,15.173,89.423,89.423,0,0,1-9.112-5.6A89.611,89.611,0,0,1,222.042,172.988ZM192.022,193.2a105.523,105.523,0,0,0,16.071,10.078A179.215,179.215,0,0,0,200.951,248H166.667A89.434,89.434,0,0,1,192.022,193.2Zm8.929,70.8a181.8,181.8,0,0,0,6.228,41.561,105.481,105.481,0,0,0-17.147,11.144A89.381,89.381,0,0,1,166.667,264ZM129.177,36.319H46.823A14.34,14.34,0,0,0,32.5,50.643v57.465a14.34,14.34,0,0,0,14.323,14.323H50.4v9.251a8,8,0,0,0,12,6.928l28.024-16.179h38.755A14.34,14.34,0,0,0,143.5,108.108V50.643A14.34,14.34,0,0,0,129.177,36.319ZM127.5,106.431H88.278a8,8,0,0,0-4,1.072L66.4,117.826v-3.395a8,8,0,0,0-8-8H48.5V52.319h79ZM383.2,466.2h81.6a14.719,14.719,0,0,0,14.7-14.7v-55a14.72,14.72,0,0,0-14.7-14.7H383.2a14.719,14.719,0,0,0-14.7,14.7v55A14.718,14.718,0,0,0,383.2,466.2Zm10.513-16,15.96-15.959,4.733,4.733a13.79,13.79,0,0,0,19.486,0l4.583-4.583L454.284,450.2ZM463.5,436.789l-13.71-13.711,13.71-13.711ZM452.44,397.8,424.149,426.09,395.859,397.8ZM384.5,409.068l13.861,13.861L384.5,436.789ZM424,28.738a59.262,59.262,0,0,0,0,118.524,8,8,0,0,0,0-16,43.245,43.245,0,1,1,36.354-19.8,2.874,2.874,0,0,1-5.287-1.561V87.517c0-.165-.014-.326-.024-.489a31.092,31.092,0,1,0-15.337,27.761,18.878,18.878,0,0,0,34.081,5.366A59.27,59.27,0,0,0,424,28.738Zm0,74.33A15.068,15.068,0,1,1,439.067,88,15.084,15.084,0,0,1,424,103.068ZM8,512H168a8,8,0,0,0,8-8V434.7H336V504a8,8,0,0,0,8,8H504a8,8,0,0,0,8-8V344a8,8,0,0,0-8-8H434.694V176H504a8,8,0,0,0,8-8V8a8,8,0,0,0-8-8H344a8,8,0,0,0-8,8V77.306H176V8a8,8,0,0,0-8-8H8A8,8,0,0,0,0,8V168a8,8,0,0,0,8,8H77.306V336H8a8,8,0,0,0-8,8V504A8,8,0,0,0,8,512ZM496,352V496H352V352ZM352,16H496V160H352ZM176,168V93.306H336V168a8,8,0,0,0,8,8h74.694V336H344a8,8,0,0,0-8,8V418.7H176V344a8,8,0,0,0-8-8H93.306V176H168A8,8,0,0,0,176,168ZM16,160V16H160V160Zm0,192H160V496H16Zm128.739,91.1L124,432.653a14.877,14.877,0,0,0-18.373,4.118l-4.586,5.872c-13.053-5.837-25.847-18.631-31.683-31.683l5.873-4.586A14.881,14.881,0,0,0,79.348,388L68.9,367.259a14.815,14.815,0,0,0-15.382-8.007l-9.407,1.364a14.74,14.74,0,0,0-6.076,2.321,32.869,32.869,0,0,0-14.6,25.381,64.4,64.4,0,0,0,.9,19.062,83.457,83.457,0,0,0,5.977,18.513,116.57,116.57,0,0,0,55.8,55.8,83.437,83.437,0,0,0,18.513,5.977,67.069,67.069,0,0,0,12.665,1.238,59.849,59.849,0,0,0,6.385-.337,32.915,32.915,0,0,0,25.394-14.6,14.726,14.726,0,0,0,2.32-6.073l1.365-9.408A14.821,14.821,0,0,0,144.739,443.1Zm-9.152,22.233A16.849,16.849,0,0,1,122.65,472.6c-.189.01-.384.027-.622.052a48.46,48.46,0,0,1-14.387-.7,67.443,67.443,0,0,1-14.947-4.845,100.62,100.62,0,0,1-47.8-47.8,67.436,67.436,0,0,1-4.845-14.948,48.411,48.411,0,0,1-.7-14.351c.021-.189.039-.378.056-.658a16.851,16.851,0,0,1,7.264-12.936l8.32-1.206,9.647,19.144-7.92,6.185a11.264,11.264,0,0,0-3.674,12.7c7.109,19.811,25.911,38.614,45.724,45.724a11.263,11.263,0,0,0,12.7-3.675l6.184-7.918,19.145,9.646Z"/>
</svg>