<svg xmlns="http://www.w3.org/2000/svg" id="Icons" viewBox="0 0 60 60">
  <defs>
    <linearGradient id="grad1" x1="0%" y1="0%" x2="100%" y2="100%">
      <stop offset="0%" style="stop-color:#4F8CF7" />
      <stop offset="100%" style="stop-color:#A855F7" />
    </linearGradient>
  </defs>
  <path fill="url(#grad1)" d="M37.9,12.2a1,1,0,0,0,.546.771A18.922,18.922,0,0,1,48.975,29h-.73a2.236,2.236,0,0,0-1.7,3.7L51.3,38.219a2.245,2.245,0,0,0,3.4,0L59.456,32.7A2.236,2.236,0,0,0,57.755,29h-.774A26.944,26.944,0,0,0,42.463,6.054a1,1,0,0,0-.982.061A1.052,1.052,0,0,0,41,7a4.255,4.255,0,0,1-1.481,3.222l-1.281,1.1A1,1,0,0,0,37.9,12.2Zm2.926-.467a6.239,6.239,0,0,0,1.98-3.2A24.941,24.941,0,0,1,55,30a1,1,0,0,0,1,1h1.755a.229.229,0,0,1,.222.141.218.218,0,0,1-.037.25l-4.755,5.525a.216.216,0,0,1-.371,0L48.06,31.391a.218.218,0,0,1-.037-.25A.229.229,0,0,1,48.245,31H50a1,1,0,0,0,1-1A20.9,20.9,0,0,0,40.642,11.893Z"/>
  <path fill="url(#grad1)" d="M7,19a4.251,4.251,0,0,1,3.223,1.473l1.109,1.289a1,1,0,0,0,.758.348,1.046,1.046,0,0,0,.124-.008,1,1,0,0,0,.771-.547A18.886,18.886,0,0,1,29,11.026v.729a2.237,2.237,0,0,0,3.7,1.7L38.219,8.7a2.246,2.246,0,0,0,0-3.4L32.7.544A2.208,2.208,0,0,0,30.307.206,2.219,2.219,0,0,0,29,2.245v.773A26.949,26.949,0,0,0,6.054,17.537a1,1,0,0,0,.061.981A1.05,1.05,0,0,0,7,19ZM30,5a1,1,0,0,0,1-1V2.245a.229.229,0,0,1,.141-.222.221.221,0,0,1,.25.037l5.525,4.754a.247.247,0,0,1,0,.372L31.391,11.94a.219.219,0,0,1-.25.037A.229.229,0,0,1,31,11.755V10a1,1,0,0,0-1-1A20.869,20.869,0,0,0,11.9,19.357l-.163-.19h0a6.2,6.2,0,0,0-3.2-1.971A24.94,24.94,0,0,1,30,5Z"/>
  <path fill="url(#grad1)" d="M29.693,46.205a2.21,2.21,0,0,0-2.388.339L21.78,51.3a2.245,2.245,0,0,0,0,3.4L27.3,59.456a2.237,2.237,0,0,0,3.7-1.7v-.774A26.945,26.945,0,0,0,53.946,42.463a1.008,1.008,0,0,0-.061-.982A1.052,1.052,0,0,0,53,41a4.252,4.252,0,0,1-3.223-1.483l-1.1-1.279a1,1,0,0,0-1.654.2A18.923,18.923,0,0,1,31,48.975v-.73A2.221,2.221,0,0,0,29.693,46.205Zm18.413-5.563.155.179v0a6.246,6.246,0,0,0,3.2,1.98A24.943,24.943,0,0,1,30,55a1,1,0,0,0-1,1v1.755a.229.229,0,0,1-.141.222.221.221,0,0,1-.25-.037l-5.525-4.754a.248.248,0,0,1,0-.372L28.61,48.06a.223.223,0,0,1,.147-.06.252.252,0,0,1,.1.023.229.229,0,0,1,.141.222V50a1,1,0,0,0,1,1A20.9,20.9,0,0,0,48.106,40.642Z"/>
  <path fill="url(#grad1)" d="M2.245,31h.773A26.949,26.949,0,0,0,17.537,53.946a.9.9,0,0,0,.42.1,1.089,1.089,0,0,0,.561-.162A1.05,1.05,0,0,0,19,53a4.208,4.208,0,0,1,1.472-3.212l1.29-1.11a1,1,0,0,0-.206-1.653A18.917,18.917,0,0,1,11.026,31h.729a2.238,2.238,0,0,0,1.7-3.7L8.7,21.78A2.243,2.243,0,0,0,7,21H7a2.242,2.242,0,0,0-1.7.78L.544,27.3a2.238,2.238,0,0,0,1.7,3.7ZM2.06,28.609l4.755-5.525a.247.247,0,0,1,.371,0l4.754,5.525a.218.218,0,0,1,.037.25.229.229,0,0,1-.222.141H10a1,1,0,0,0-1,1A20.9,20.9,0,0,0,19.359,48.107l-.188.163a6.144,6.144,0,0,0-1.976,3.2A24.943,24.943,0,0,1,5,30a1,1,0,0,0-1-1H2.245a.229.229,0,0,1-.222-.141A.218.218,0,0,1,2.06,28.609Z"/>
</svg>