<svg id="Layer_1" enable-background="new 0 0 66 66" viewBox="0 0 66 66" xmlns="http://www.w3.org/2000/svg">
  <defs>
    <linearGradient id="grad1" x1="0%" y1="0%" x2="100%" y2="100%">
      <stop offset="0%" style="stop-color:#4F8CF7" />
      <stop offset="100%" style="stop-color:#A855F7" />
    </linearGradient>
  </defs>
  <g>
    <path fill="url(#grad1)" d="m45.27 33.04 5.69-5.69c3.83.81 7.86-.37 10.64-3.15 2.92-2.92 4.07-7.21 3.02-11.21-.09-.35-.36-.62-.71-.71s-.71.01-.97.26l-5.31 5.31-4.81-1.32-1.32-4.81 5.31-5.31c.25-.25.35-.62.26-.97s-.36-.61-.71-.71c-3.99-1.06-8.29.1-11.21 3.02-2.78 2.78-3.96 6.81-3.15 10.64l-6.13 6.13-7.3-6.61c.01-.07.04-.13.04-.19 0-.27-.11-.52-.3-.71-2.16-2.11-2.46-3.48-2.5-3.76.8-2.36 8.08-2.85 13.08-2.43.5.04.95-.29 1.06-.77l.34-1.46c.1-.45-.11-.91-.53-1.12-15.26-7.61-26 2.57-26.11 2.67 0 0-.01.01-.01.01l-3.2 3.2c-.11.11-.19.24-.24.38-.85 2.48-2.83 4.47-5.32 5.32-.14.05-.27.13-.38.24l-3.2 3.2c-.39.39-.39 1.02 0 1.41l7.01 7.01c.2.2.45.29.71.29s.51-.1.71-.29l3.2-3.2c.11-.11.19-.24.24-.38.22-.66.53-1.29.9-1.87.67-1.04 1.76-1.71 3-1.84 1.28-.14 2.53.31 3.43 1.21.19.19.44.29.71.29.07 0 .14-.03.2-.04l6.61 7.29-6.28 6.28c-3.83-.81-7.86.37-10.64 3.15-2.92 2.92-4.07 7.21-3.02 11.21.09.35.36.62.71.71.34.09.71-.01.97-.26l5.31-5.31 4.81 1.32 1.32 4.81-5.31 5.31c-.25.25-.35.62-.26.97s.36.61.71.71c.98.26 1.98.39 2.97.39 3.05 0 6.04-1.2 8.24-3.4 2.78-2.78 3.96-6.81 3.15-10.64l5.84-5.84 14.51 16.01c1.34 1.48 3.19 2.33 5.19 2.38h.18c1.93 0 3.74-.75 5.11-2.12 1.42-1.42 2.17-3.3 2.12-5.3s-.89-3.84-2.38-5.19zm-28.41-11.41c-1.85.2-3.48 1.2-4.47 2.74-.42.65-.77 1.35-1.04 2.08l-2.34 2.34-5.59-5.59 2.34-2.34c2.88-1.06 5.2-3.38 6.26-6.26l3.04-3.04c.45-.43 9.42-8.79 22.73-2.83-3.81-.2-12.87-.2-13.94 4.14-.01.05-.02.11-.03.17-.03.34-.01 2.05 2.4 4.67l-5.05 5.05c-1.25-.89-2.77-1.3-4.31-1.13zm6.09 2.17 4.35-4.35 7.16 6.49-5.02 5.02zm5.68 23.75c.88 3.31-.08 6.86-2.5 9.28-1.97 1.97-4.71 2.97-7.45 2.79l4.34-4.34c.25-.25.35-.63.26-.97l-1.63-5.92c-.09-.34-.36-.61-.7-.7l-5.92-1.63c-.35-.09-.72 0-.97.26l-4.34 4.34c-.18-2.74.82-5.48 2.79-7.45 2.42-2.42 5.97-3.37 9.28-2.5.34.09.71-.01.96-.26l21.05-21.05c.25-.25.35-.62.26-.96-.88-3.31.08-6.86 2.5-9.28 1.97-1.98 4.71-2.98 7.45-2.79l-4.34 4.34c-.25.25-.35.63-.26.97l1.63 5.92c.09.34.36.61.7.7l5.92 1.63c.35.1.72 0 .97-.26l4.34-4.34c.18 2.74-.82 5.48-2.79 7.45-2.42 2.42-5.97 3.37-9.28 2.5-.34-.09-.71.01-.96.26l-21.05 21.05c-.25.25-.35.62-.26.96zm31.49 9.07c-1.02 1.02-2.38 1.56-3.84 1.53-1.45-.04-2.78-.65-3.76-1.72l-14.56-16.08 5.9-5.9 16.08 14.58c1.07.97 1.68 2.31 1.72 3.76s-.51 2.81-1.54 3.83z"/>
    <path fill="url(#grad1)" d="m45.66 23.52c-.39-.39-1.02-.39-1.41 0l-18.1 18.09c-.39.39-.39 1.02 0 1.41.2.2.45.29.71.29s.51-.1.71-.29l18.09-18.09c.39-.39.39-1.02 0-1.41z"/>
  </g>
</svg>