<svg viewBox="0 -8 490.64592 490" xmlns="http://www.w3.org/2000/svg">
  <defs>
    <linearGradient id="grad1" x1="0%" y1="0%" x2="100%" y2="100%">
      <stop offset="0%" style="stop-color:#4F8CF7" />
      <stop offset="100%" style="stop-color:#A855F7" />
    </linearGradient>
  </defs>
  <path fill="url(#grad1)" d="m84.054688 271.585938c.894531.480468 1.890624.734374 2.90625.734374.296874 0 .59375-.019531.886718-.0625 2.613282-.410156 4.699219-2.390624 5.253906-4.976562.617188-2.765625 1.011719-5.578125 1.175782-8.410156 1.828125-19.558594 5.683594-38.652344 30.402344-38.652344h194.257812c18.824219-.019531 34.082031-15.273438 34.105469-34.101562v-151.695313c-.023438-18.824219-15.28125-34.078125-34.105469-34.097656h-284.835938c-18.824218.023437-34.0781245 15.277343-34.101562 34.097656v151.691406c.0234375 18.824219 15.277344 34.078125 34.101562 34.101563h11.433594c1.769532-.050782 3.324219 1.15625 3.71875 2.878906 6.324219 35.765625 29.765625 46.5625 34.800782 48.492188zm-38.519532-63.363282h-11.433594c-12.199218-.015625-22.085937-9.902344-22.101562-22.101562v-151.699219c.015625-12.199219 9.902344-22.082031 22.101562-22.097656h284.835938c12.199219.011719 22.089844 9.898437 22.105469 22.097656v151.691406c-.015625 12.203125-9.90625 22.089844-22.105469 22.101563h-194.261719c-37.257812 0-40.878906 33.875-42.296875 48.984375-6.902344-4.613281-17.5625-14.972657-21.3125-36.191407-1.386718-7.46875-7.9375-12.859374-15.53125-12.785156zm0 0"/>
  <path fill="url(#grad1)" d="m311.910156 125.558594h-72.011718c-3.3125 0-6 2.683594-6 6 0 3.3125 2.6875 6 6 6h72.011718c3.316406 0 6-2.6875 6-6 0-3.316406-2.683594-6-6-6zm0 0"/>
  <path fill="url(#grad1)" d="m211.882812 131.558594c0-3.316406-2.6875-6-6-6h-113.5c-3.3125 0-6 2.683594-6 6 0 3.3125 2.6875 6 6 6h113.5c3.3125 0 6-2.6875 6-6zm0 0"/>
  <path fill="url(#grad1)" d="m41.128906 137.558594h24.769532c3.3125 0 6-2.6875 6-6 0-3.316406-2.6875-6-6-6h-24.769532c-3.316406 0-6 2.683594-6 6 0 3.3125 2.683594 6 6 6zm0 0"/>
  <path fill="url(#grad1)" d="m293.109375 102.421875h18.800781c3.3125 0 6-2.683594 6-6 0-3.3125-2.6875-6-6-6h-18.800781c-3.3125 0-6 2.6875-6 6 0 3.316406 2.6875 6 6 6zm0 0"/>
  <path fill="url(#grad1)" d="m266.777344 102.421875c3.3125 0 6-2.683594 6-6 0-3.3125-2.6875-6-6-6h-31.476563c-3.3125 0-6 2.6875-6 6 0 3.316406 2.6875 6 6 6zm0 0"/>
  <path fill="url(#grad1)" d="m41.128906 102.421875h167.628906c3.316407 0 6-2.683594 6-6 0-3.3125-2.683593-6-6-6h-167.628906c-3.316406 0-6 2.6875-6 6 0 3.316406 2.683594 6 6 6zm0 0"/>
  <path fill="url(#grad1)" d="m296.710938 60.269531h15.199218c3.3125 0 6-2.6875 6-6s-2.6875-6-6-6h-15.199218c-3.316407 0-6 2.6875-6 6s2.683593 6 6 6zm0 0"/>
  <path fill="url(#grad1)" d="m204.910156 60.269531h65.113282c3.3125 0 6-2.6875 6-6s-2.6875-6-6-6h-65.113282c-3.316406 0-6 2.6875-6 6s2.683594 6 6 6zm0 0"/>
  <path fill="url(#grad1)" d="m41.128906 60.269531h137.238282c3.3125 0 6-2.6875 6-6s-2.6875-6-6-6h-137.238282c-3.316406 0-6 2.6875-6 6s2.683594 6 6 6zm0 0"/>
  <path fill="url(#grad1)" d="m241.699219 160.6875h-2.910157c-3.3125 0-6 2.6875-6 6s2.6875 6 6 6h2.910157c3.3125 0 6-2.6875 6-6s-2.6875-6-6-6zm0 0"/>
  <path fill="url(#grad1)" d="m214.421875 160.6875h-52.03125c-3.3125 0-6 2.6875-6 6s2.6875 6 6 6h52.03125c3.3125 0 6-2.6875 6-6s-2.6875-6-6-6zm0 0"/>
  <path fill="url(#grad1)" d="m135.203125 166.6875c0-3.3125-2.683594-6-6-6h-88.074219c-3.316406 0-6 2.6875-6 6s2.683594 6 6 6h88.074219c3.316406 0 6-2.6875 6-6zm0 0"/>
  <path fill="url(#grad1)" d="m490.644531 255.101562c.003907-17.324218-13.472656-31.660156-30.765625-32.722656-17.292968-1.066406-32.425781 11.507813-34.546875 28.703125-2.121093 17.195313 9.5 33.070313 26.53125 36.242188v35.917969c-4.757812-1.777344-9.722656-2.9375-14.777343-3.445313v-.007813c-.023438-19.871093-16.128907-35.976562-36-36h-50.292969v-19.382812c-.007813-7.992188-6.484375-14.472656-14.480469-14.484375h-42.410156v-18.871094c0-3.3125-2.6875-6-6-6-3.316406 0-6 2.6875-6 6v18.871094h-41.703125c-7.992188.011719-14.46875 6.488281-14.480469 14.480469v19.382812h-50.289062c-19.871094.023438-35.976563 16.128906-36 36v118.539063c.023437 19.871093 16.128906 35.976562 36 36h225.65625c19.871093-.023438 35.976562-16.128907 36-36v-.011719c25.066406-2.527344 45.824218-20.558594 51.839843-45.023438 6.011719-24.464843-4.023437-50.066406-25.0625-63.925781v-42.039062c15.511719-2.910157 26.757813-16.441407 26.78125-32.222657zm-252.921875 9.304688c0-1.367188 1.109375-2.476562 2.480469-2.480469h96.109375c1.371094.003907 2.480469 1.113281 2.480469 2.480469v19.382812h-101.070313zm187.363282 173.917969c-.015626 13.246093-10.753907 23.984375-24 24h-225.65625c-13.246094-.015625-23.984376-10.753907-24-24v-118.535157c.015624-13.246093 10.753906-23.984374 24-24h225.65625c13.246093.015626 23.984374 10.753907 24 24zm53.558593-59.269531c-.027343 23.9375-17.816406 44.132812-41.558593 47.183593v-94.367187c23.742187 3.050781 41.53125 23.25 41.558593 47.183594zm-41.558593-123.953126c0-11.476562 9.300781-20.777343 20.777343-20.777343 11.476563 0 20.78125 9.300781 20.78125 20.777343 0 11.476563-9.304687 20.78125-20.78125 20.78125-11.46875-.011718-20.765625-9.308593-20.777343-20.78125zm0 0"/>
  <path fill="url(#grad1)" d="m214.328125 347.613281h-5.917969c-11.042968.015625-19.988281 8.960938-20 20v17.101563c0 3.3125 2.683594 6 6 6h33.917969c3.316406 0 6-2.6875 6-6v-17.101563c-.011719-11.039062-8.957031-19.984375-20-20zm8 31.101563h-21.917969v-11.101563c.003906-4.414062 3.582032-7.992187 8-8h5.917969c4.417969.007813 7.996094 3.585938 8 8zm0 0"/>
  <path fill="url(#grad1)" d="m368.105469 347.613281h-5.917969c-11.042969.015625-19.988281 8.960938-20 20v17.101563c0 3.3125 2.683594 6 6 6h33.917969c3.316406 0 6-2.6875 6-6v-17.101563c-.011719-11.039062-8.957031-19.984375-20-20zm8 31.101563h-21.917969v-11.101563c.003906-4.414062 3.582031-7.992187 8-8h5.917969c4.417969.007813 7.996093 3.585938 8 8zm0 0"/>
  <path fill="url(#grad1)" d="m322.175781 405.789062h-67.839843c-3.3125 0-6 2.683594-6 6v5.917969c.023437 18.769531 15.230468 33.980469 34 34h11.839843c18.769531-.019531 33.980469-15.230469 34-34v-5.917969c0-3.316406-2.683593-6-6-6zm-28 33.917969h-11.839843c-12.113282-.011719-21.941407-9.804687-22-21.917969h55.839843c-.054687 12.113282-9.886719 21.90625-22 21.917969zm0 0"/>
</svg>