<svg id="Layer_1" viewBox="0 0 512 512" xmlns="http://www.w3.org/2000/svg" xmlns:xlink="http://www.w3.org/1999/xlink" data-name="Layer 1">
  <defs>
    <linearGradient id="grad1" x1="0%" y1="0%" x2="100%" y2="100%">
      <stop offset="0%" style="stop-color:#4F8CF7" />
      <stop offset="100%" style="stop-color:#A855F7" />
    </linearGradient>
  </defs>
  <path fill="url(#grad1)" d="m274.626 137.845h-111.776v-39.588a16.734 16.734 0 0 1 16.713-16.714h245.915a16.734 16.734 0 0 1 16.713 16.714v58.7a16.732 16.732 0 0 1 -16.713 16.713h-29.916a4.005 4.005 0 0 0 -4 4v41.49l-44.319-44.319a4.021 4.021 0 0 0 -2.825-1.172h-45.077v-11.109a24.743 24.743 0 0 0 -24.715-24.715zm208.653 149.34h-245.914a16.733 16.733 0 0 0 -16.714 16.715v58.7a16.733 16.733 0 0 0 16.714 16.714h164.854a3.98 3.98 0 0 1 2.824 1.171l44.319 44.315v-41.49a4 4 0 0 1 4-4h29.916a16.738 16.738 0 0 0 16.722-16.71v-58.7a16.737 16.737 0 0 0 -16.721-16.715z"/>
  <path fill="url(#grad1)" d="m28.712 149.842a12.729 12.729 0 0 0 -12.712 12.718v58.7a12.725 12.725 0 0 0 12.714 12.714h29.919a8 8 0 0 1 8 8v31.826l37.486-37.486a8.005 8.005 0 0 1 5.658-2.343h164.849a12.733 12.733 0 0 0 12.719-12.714v-58.7a12.737 12.737 0 0 0 -12.719-12.718zm366.849 86.975a8.006 8.006 0 0 1 -5.662-2.343l-48.8-48.8h-37.758v35.586a28.747 28.747 0 0 1 -28.715 28.715h-161.534l-48.8 48.8a8 8 0 0 1 -13.659-5.653v-43.147h-21.921a28.747 28.747 0 0 1 -28.712-28.715v-58.7a28.744 28.744 0 0 1 28.715-28.715h122.133v-35.588a28.75 28.75 0 0 1 28.716-28.714h245.914a28.749 28.749 0 0 1 28.714 28.714v58.7a28.747 28.747 0 0 1 -28.714 28.715h-21.916v43.143a8.009 8.009 0 0 1 -8 8zm-92.22-67.146v-7.111a28.744 28.744 0 0 0 -28.715-28.715h-107.776v-35.588a12.728 12.728 0 0 1 12.714-12.713h245.914a12.725 12.725 0 0 1 12.713 12.713v58.7a12.725 12.725 0 0 1 -12.713 12.713h-29.917a8 8 0 0 0 -8 8v31.833l-37.491-37.489a8 8 0 0 0 -5.653-2.343zm-65.976 121.513a12.729 12.729 0 0 0 -12.714 12.716v58.7a12.729 12.729 0 0 0 12.714 12.714h164.853a8 8 0 0 1 5.654 2.343l37.49 37.49v-31.834a8 8 0 0 1 8-8h29.916a12.737 12.737 0 0 0 12.722-12.713v-58.7a12.737 12.737 0 0 0 -12.723-12.714zm216 151.273a8 8 0 0 0 8-8v-43.144h21.92a28.755 28.755 0 0 0 28.715-28.713v-58.7a28.755 28.755 0 0 0 -28.724-28.715h-245.911a28.747 28.747 0 0 0 -28.715 28.715v58.7a28.747 28.747 0 0 0 28.715 28.715h161.535l48.8 48.8a8.008 8.008 0 0 0 5.663 2.342z"/>
</svg>